<svg width="25" height="25" viewBox="0 0 25 25" fill="none" xmlns="http://www.w3.org/2000/svg">
<g clip-path="url(#clip0_515_646)">
<path d="M6.64756 9.28105H6.84756C7.61756 9.28105 8.24756 9.91106 8.24756 10.6811V17.6811C8.24756 18.4511 7.61756 19.0811 6.84756 19.0811H6.64756C5.87756 19.0811 5.24756 18.4511 5.24756 17.6811V10.6811C5.24756 9.91106 5.87756 9.28105 6.64756 9.28105V9.28105ZM12.2476 5.08105C13.0176 5.08105 13.6476 5.71105 13.6476 6.48105V17.6811C13.6476 18.4511 13.0176 19.0811 12.2476 19.0811C11.4776 19.0811 10.8476 18.4511 10.8476 17.6811V6.48105C10.8476 5.71105 11.4776 5.08105 12.2476 5.08105ZM17.8476 13.0811C18.6176 13.0811 19.2476 13.7111 19.2476 14.4811V17.6811C19.2476 18.4511 18.6176 19.0811 17.8476 19.0811C17.0776 19.0811 16.4476 18.4511 16.4476 17.6811V14.4811C16.4476 13.7111 17.0776 13.0811 17.8476 13.0811V13.0811Z" fill="#7848F4"/>
</g>
<defs>
<clipPath id="clip0_515_646">
<rect width="24" height="24" fill="white" transform="translate(0.247559 0.0810547)"/>
</clipPath>
</defs>
</svg>
